Coordinates
version=1
nRows=10
nColumns=33
inDegrees=yes

Units are S.I. units (second, meters, Newtons, ...)
Angles are in degrees.

endheader
time	ground_thorax_rot_x	ground_thorax_rot_y	ground_thorax_rot_z	ground_thorax_tx	ground_thorax_ty	ground_thorax_tz	clav_prot_r	clav_elev_r	scapula_abduction_r	scapula_elevation_r	scapula_upward_rot_r	scapula_winging_r	shoulder_elv_r	plane_of_elev_r	axial_rot_r	elbow_flexion_r	pro_sup_r	wrist_flex_r	wrist_dev_r	clav_prot_l	clav_elev_l	scapula_abduction_l	scapula_elevation_l	scapula_upward_rot_l	scapula_winging_l	shoulder_elv_l	plane_of_elev_l	axial_rot_l	elbow_flexion_l	pro_sup_l	wrist_flex_l	wrist_dev_l
      9.22000000	     37.84811025	      6.78976973	     18.95745180	   -229.06347708	    830.53456156	     -5.94127986	      8.33888178	     43.30108592	     36.53471503	     45.00000000	    -14.84419097	   1337.18013244	  -1381.40874845	     18.46006522	   -179.99999979	   1085.09425497	    -96.68011469	     18.22817806	     10.48192318	     11.45001495	    -45.00000000	    -32.27322784	     45.00000000	    -45.00000000	  -1339.97808682	  -1365.80244220	     11.81761621	    -71.83652553	      8.90549020	     32.41331174	     10.42209382	    -21.64234592
      9.23000000	     38.08893373	      6.50189643	     18.26537990	   -230.25869330	    832.50396553	     -6.19423256	      7.28559812	     43.75024202	     37.32776071	     45.00000000	    -11.65533370	   1335.44713557	  -1380.93184247	     17.85321197	   -179.99999979	   1085.74562114	    -96.51985329	     18.11068650	     10.65680056	     11.51167120	    -45.00000000	    -32.41906153	     45.00000000	    -45.00000000	  -1340.07707529	  -1366.05078796	     11.94255191	    -71.44787623	      8.83161084	     32.13298842	     10.22467278	    -21.83667999
      9.24000000	     38.29537295	      6.21590392	     17.65979779	   -231.23163286	    834.39939537	     -6.44857344	      7.08201100	     43.32556599	     37.75507822	     45.00000000	    -10.62832925	   1334.72118770	  -1380.82947243	     17.72755109	   -179.99999979	   1085.82118924	    -96.15689811	     18.42689778	     10.62382021	     11.46867897	    -45.00000000	    -32.49027033	     45.00000000	    -45.00000000	  -1340.05260979	  -1366.19916731	     12.21469113	    -71.18270308	      8.85211613	     31.97768554	     10.05791620	    -21.75925926
      9.25000000	     38.38364342	      6.01096391	     17.16578119	   -231.98906116	    836.21865365	     -6.68890325	      6.91834666	     43.31685725	     37.99459510	     44.92818466	     -9.96805279	   1334.32026817	  -1380.79834730	     17.69665013	   -179.99999979	   1085.94608657	    -95.70881944	     18.54488889	     10.62995215	     11.50311534	    -45.00000000	    -32.60940021	     45.00000000	    -45.00000000	  -1340.13115375	  -1366.15575872	     12.31521805	    -71.13950793	      8.97040939	     31.92199507	     10.01821515	    -21.82347180
      9.26000000	     38.40822747	      5.97515299	     17.16036854	   -232.54481524	    837.95847253	     -6.89908466	      6.76707660	     43.77039414	     38.15591918	     45.00000000	     -9.44694224	   1334.02405430	  -1380.70292914	     17.64695902	   -179.99999979	   1086.03170081	    -95.11824586	     18.52608735	     10.61211885	     11.56692692	    -45.00000000	    -32.59102657	     45.00000000	    -45.00000000	  -1340.05547149	  -1365.96820541	     12.15546803	    -71.03298432	      8.97166690	     31.93163985	      9.97053733	    -21.84107001
      9.27000000	     38.53958965	      5.50654668	     16.49504730	   -232.91369074	    839.61571360	     -7.06382577	      6.72924525	     43.07189018	     38.47639415	     45.00000000	     -8.94082226	   1333.72172477	  -1380.85634024	     17.67082862	   -179.99999979	   1085.97322445	    -94.62862550	     18.96203989	     10.56456117	     11.61279927	    -45.00000000	    -32.87592189	     45.00000000	    -45.00000000	  -1339.95889133	  -1366.08417960	     12.47813756	    -70.85636601	      9.18292894	     31.93738492	      9.72712827	    -21.81896113
      9.28000000	     38.50158083	      5.83690820	     16.61119026	   -233.11099348	    841.18375422	     -7.17211787	      6.61029895	     43.88939419	     38.47903224	     45.00000000	     -8.56948169	   1333.49926635	  -1380.65763302	     17.55853366	   -179.99999979	   1086.10642321	    -94.06066951	     18.67814100	     10.58281779	     11.62924174	    -45.00000000	    -32.94668934	     45.00000000	    -45.00000000	  -1340.04503461	  -1365.58875304	     12.20764652	    -70.94803834	      9.50705140	     32.08260467	      9.87045514	    -22.07015393
      9.29000000	     38.63950522	      5.69998245	     16.40867960	   -233.15371472	    842.66606228	     -7.22039503	      6.50989250	     43.92093602	     38.76717792	     45.00000000	     -8.12666294	   1333.23783048	  -1380.48730882	     17.56778532	   -179.99999979	   1086.11793079	    -93.36493787	     18.84225208	     10.54047265	     11.65793798	    -45.00000000	    -32.94581684	     45.00000000	    -45.00000000	  -1340.04069248	  -1365.78143319	     12.29781518	    -70.85032255	      9.24389186	     32.30975474	      9.65605978	    -21.90804471
      9.30000000	     38.72762941	      5.69138138	     16.18791050	   -233.05651552	    844.05817336	     -7.21093084	      6.31738817	     43.79268213	     38.70517914	     45.00000000	     -7.75788031	   1333.24432254	  -1380.39378466	     17.56623711	   -179.99999979	   1086.07500912	    -92.69744578	     18.98320544	     10.51182049	     11.82898258	    -45.00000000	    -33.09385201	     45.00000000	    -45.00000000	  -1339.98444190	  -1365.71979350	     12.41897797	    -70.85256348	      9.42921045	     32.56750722	      9.53479706	    -21.95963243
      9.31000000	     38.77537486	      5.70898785	     16.06100526	   -232.83397729	    845.35676502	     -7.15092991	      6.18948654	     43.78484792	     38.59017798	     45.00000000	     -7.52606956	   1333.30088193	  -1380.32778220	     17.61380553	   -179.99999979	   1085.99899330	    -92.06966780	     19.08806289	     10.47139011	     11.95217698	    -45.00000000	    -33.26575809	     45.00000000	    -45.00000000	  -1339.95891670	  -1365.67738941	     12.47335483	    -70.86616888	      9.49932059	     32.88696387	      9.41949074	    -21.97675676
